<mxfile host="app.diagrams.net" agent="Mozilla/5.0 (X11; Linux x86_64) AppleWebKit/537.36 (KHTML, like Gecko) Chrome/129.0.0.0 Safari/537.36" version="28.2.0">
  <diagram name="PÃ¡gina-1" id="_CqutgoL5RMSF9ho79T_">
    <mxGraphModel dx="872" dy="481" grid="1" gridSize="10" guides="1" tooltips="1" connect="1" arrows="1" fold="1" page="1" pageScale="1" pageWidth="827" pageHeight="1169" math="0" shadow="0">
      <root>
        <mxCell id="0" />
        <mxCell id="1" parent="0" />
        <mxCell id="Ya6VVd3w3RKE_6rQh7HO-2" value="EC2" style="ellipse;shape=cloud;whiteSpace=wrap;html=1;align=center;fontStyle=1" vertex="1" parent="1">
          <mxGeometry x="140" y="90" width="510" height="280" as="geometry" />
        </mxCell>
        <mxCell id="Ya6VVd3w3RKE_6rQh7HO-3" value="" style="outlineConnect=0;dashed=0;verticalLabelPosition=bottom;verticalAlign=top;align=center;html=1;shape=mxgraph.aws3.ec2;fillColor=#F58534;gradientColor=none;fontStyle=1" vertex="1" parent="1">
          <mxGeometry x="360.75" y="163.5" width="106.5" height="133" as="geometry" />
        </mxCell>
        <mxCell id="Ya6VVd3w3RKE_6rQh7HO-4" value="&lt;font style=&quot;font-size: 19px;&quot;&gt;EC2&lt;/font&gt;" style="text;strokeColor=none;align=center;fillColor=none;html=1;verticalAlign=middle;whiteSpace=wrap;rounded=0;fontStyle=1" vertex="1" parent="1">
          <mxGeometry x="384" y="310" width="60" height="30" as="geometry" />
        </mxCell>
        <mxCell id="Ya6VVd3w3RKE_6rQh7HO-5" style="edgeStyle=orthogonalEdgeStyle;rounded=0;orthogonalLoop=1;jettySize=auto;html=1;exitX=0.25;exitY=0;exitDx=0;exitDy=0;entryX=0.5;entryY=1;entryDx=0;entryDy=0;entryPerimeter=0;" edge="1" parent="1" source="Ya6VVd3w3RKE_6rQh7HO-4" target="Ya6VVd3w3RKE_6rQh7HO-3">
          <mxGeometry relative="1" as="geometry" />
        </mxCell>
        <mxCell id="Ya6VVd3w3RKE_6rQh7HO-6" value="&lt;font style=&quot;font-size: 16px;&quot;&gt;&lt;i&gt;Amazon Web Services&lt;/i&gt;&lt;/font&gt;" style="text;strokeColor=none;align=center;fillColor=none;html=1;verticalAlign=middle;whiteSpace=wrap;rounded=0;" vertex="1" parent="1">
          <mxGeometry x="190" y="178.5" width="60" height="30" as="geometry" />
        </mxCell>
      </root>
    </mxGraphModel>
  </diagram>
</mxfile>
